<?xml version="1.0" standalone="no"?>
<!DOCTYPE svg PUBLIC "-//W3C//DTD SVG 20010904//EN"
 "http://www.w3.org/TR/2001/REC-SVG-20010904/DTD/svg10.dtd">
<svg version="1.0" xmlns="http://www.w3.org/2000/svg"
 width="234.000000pt" height="215.000000pt" viewBox="0 0 234.000000 215.000000"
 preserveAspectRatio="xMidYMid meet">

<g transform="translate(0.000000,215.000000) scale(0.100000,-0.100000)"
fill="#000000" stroke="none">
<path d="M0 1075 l0 -1075 1170 0 1170 0 0 1075 0 1075 -1170 0 -1170 0 0
-1075z m1479 1025 c359 -88 635 -381 705 -748 l14 -72 -51 -25 c-70 -33 -86
-21 -109 84 -44 206 -160 382 -331 501 -136 96 -280 140 -463 140 -178 0 -338
-52 -472 -152 -35 -26 -74 -51 -87 -54 -28 -7 -75 -58 -75 -80 0 -8 -24 -54
-53 -103 -49 -81 -55 -87 -72 -75 -10 8 -40 17 -67 20 -26 4 -48 9 -48 13 0 3
18 39 40 80 141 257 381 431 673 487 98 19 287 11 396 -16z m-487 -370 c125
-24 176 -25 199 -4 22 20 39 11 39 -21 0 -39 -31 -48 -134 -41 -60 4 -86 3
-76 -3 13 -9 12 -18 -3 -75 -9 -35 -20 -73 -24 -83 -3 -10 8 1 25 24 17 22 35
44 41 47 8 6 42 -6 59 -19 1 -1 -4 -20 -12 -43 -8 -23 -18 -70 -21 -104 l-6
-63 25 28 c14 15 26 36 26 45 0 62 61 162 99 162 27 0 81 -39 81 -59 0 -26
-35 -68 -81 -97 -28 -18 -39 -31 -39 -49 0 -22 4 -25 34 -25 40 0 96 46 96 79
0 12 4 21 9 21 21 0 22 -22 4 -57 l-19 -37 23 -21 23 -20 -30 -105 c-17 -58
-30 -107 -30 -108 0 -2 19 25 43 60 48 72 71 81 113 45 l28 -25 -12 -72 c-18
-103 -63 -194 -114 -227 -41 -28 -60 -26 -82 9 -8 13 -3 23 22 46 36 34 76
114 91 182 l10 45 -25 -30 c-39 -47 -114 -207 -114 -243 0 -27 -4 -32 -23 -32
-13 0 -32 6 -42 14 -18 13 -19 19 -7 107 6 52 25 149 42 217 16 68 30 124 30
125 0 1 -18 2 -39 2 -25 0 -47 8 -60 19 -20 18 -22 18 -39 3 -24 -21 -51 -21
-81 -1 -22 16 -23 22 -18 80 2 35 1 62 -3 59 -4 -3 -20 -40 -36 -82 -15 -43
-28 -79 -29 -80 0 -1 -11 1 -24 4 -23 6 -23 9 -17 77 3 39 17 113 31 164 30
113 30 112 4 112 -11 0 -18 -4 -15 -8 3 -4 -9 -57 -25 -118 -16 -60 -32 -144
-36 -186 -6 -83 -14 -92 -52 -60 -21 16 -22 21 -11 87 6 39 23 118 37 177 15
59 24 111 20 114 -10 10 -117 -13 -144 -31 -28 -19 -30 -51 -3 -67 29 -18 25
-29 -7 -22 -36 8 -49 25 -57 75 -8 52 11 85 57 98 54 16 171 12 279 -9z m-511
-267 c94 -79 89 -240 -8 -311 l-28 -20 27 -12 c38 -18 51 -50 46 -115 -10
-117 -107 -194 -256 -203 -65 -4 -86 -1 -130 18 -89 38 -131 112 -112 195 11
48 41 75 84 75 41 0 48 -7 34 -33 -16 -31 -13 -118 5 -153 17 -34 77 -64 125
-64 45 1 110 36 132 72 12 21 20 51 20 80 0 62 -29 97 -86 105 l-41 5 -11 -70
c-7 -39 -12 -82 -12 -96 0 -29 -22 -34 -65 -14 -30 13 -32 49 -11 140 l14 58
-37 -6 c-34 -5 -40 -2 -74 36 -74 81 -73 113 5 196 85 90 193 143 290 144 47
0 62 -5 89 -27z m1821 -230 c22 -20 23 -56 2 -74 -13 -11 -17 -10 -25 4 -11
18 -58 22 -94 7 -18 -7 -17 -8 10 -15 95 -24 144 -84 125 -153 -25 -93 -91
-145 -186 -145 -73 0 -94 19 -94 84 0 27 7 67 16 89 l16 39 38 -19 c21 -11 41
-24 44 -29 3 -5 -3 -29 -14 -52 -27 -60 -26 -79 4 -79 35 0 72 34 91 84 32 83
6 116 -92 116 l-53 0 0 39 c0 33 5 43 31 62 27 19 126 57 153 58 5 1 18 -6 28
-16z m-1136 -12 l32 -19 -21 -71 c-22 -76 -31 -82 -82 -59 -21 10 -25 17 -20
37 5 25 5 26 -11 6 -23 -29 -69 -131 -89 -198 -9 -31 -22 -57 -28 -57 -29 0
-57 13 -57 26 0 11 -7 9 -29 -7 -25 -19 -33 -20 -64 -10 -44 15 -64 38 -69 76
-3 28 -5 26 -23 -25 l-21 -55 -46 1 c-68 0 -78 13 -78 99 0 86 26 180 65 230
22 29 32 35 65 35 41 0 90 -17 90 -32 0 -4 -9 -8 -20 -8 -52 0 -114 -137 -108
-236 l3 -49 36 70 c20 39 46 100 59 138 12 37 25 67 28 67 4 0 22 -9 41 -21
26 -15 32 -25 28 -42 -17 -74 -37 -182 -37 -203 0 -22 2 -23 21 -14 28 16 57
66 64 114 4 23 16 81 27 129 20 88 20 89 47 82 14 -4 33 -13 42 -21 15 -14 15
-21 3 -67 -17 -65 -17 -69 3 -32 26 49 94 135 107 135 6 0 25 -9 42 -19z m859
5 c40 -17 41 -25 18 -106 -19 -64 -29 -70 -78 -48 -21 9 -26 17 -22 37 5 25 5
25 -10 6 -23 -30 -69 -134 -88 -198 -9 -31 -22 -57 -28 -57 -32 1 -57 14 -57
31 0 17 -3 17 -46 -6 -90 -48 -189 -25 -214 51 -37 110 50 294 138 294 44 0
100 -34 108 -66 4 -13 1 -38 -7 -55 -14 -34 -88 -98 -138 -118 -24 -11 -31
-19 -31 -41 0 -48 9 -60 46 -60 49 0 98 23 121 56 17 25 64 213 67 267 1 22
23 22 63 -2 l32 -20 -15 -53 c-17 -66 -17 -70 3 -33 18 33 93 135 100 135 2 0
19 -7 38 -14z m-1436 -510 c49 -70 137 -156 214 -206 l66 -43 -15 -29 c-20
-39 -4 -90 37 -119 86 -61 -53 -5 -162 66 -125 81 -237 200 -310 329 -31 56
-32 60 -15 70 11 6 37 25 60 42 l41 30 25 -45 c14 -25 41 -68 59 -95z m621
129 c70 -36 98 -175 53 -260 -41 -77 -98 -115 -174 -115 -81 0 -138 60 -120
126 6 23 14 30 39 32 30 3 31 2 23 -25 -17 -57 23 -100 85 -90 82 13 118 71
117 189 -1 115 -24 131 -122 82 -57 -29 -96 -83 -74 -105 21 -21 41 -1 48 44
6 38 10 44 26 40 11 -3 22 -9 25 -14 6 -10 -38 -219 -47 -219 -3 0 -14 6 -24
14 -17 12 -18 19 -9 58 10 41 9 45 -7 41 -20 -5 -57 31 -65 64 -11 42 53 108
132 137 51 19 59 19 94 1z m879 -23 l32 -27 -182 -300 c-121 -200 -182 -310
-183 -330 -1 -25 -6 -31 -28 -33 -31 -4 -78 -54 -78 -83 0 -18 -11 -25 -22
-13 -6 5 2 39 16 75 6 13 -4 17 -63 23 -290 27 -633 152 -689 251 -12 23 7 69
35 80 12 4 59 -15 147 -60 149 -77 264 -125 373 -156 111 -31 258 -59 261 -50
1 4 25 43 52 86 54 86 57 96 35 115 -8 7 -15 19 -15 27 0 12 209 391 232 419
12 16 40 7 77 -24z m-664 -132 c26 -29 12 -64 -40 -97 -47 -30 -54 -43 -31
-63 12 -9 21 -9 43 2 34 16 49 46 64 121 11 58 25 71 49 42 6 -8 9 -24 5 -37
-5 -16 1 -11 19 15 26 35 58 48 71 27 3 -5 -1 -44 -10 -86 -9 -42 -13 -79 -10
-83 8 -8 34 28 42 57 6 26 23 30 23 5 0 -30 -38 -83 -60 -83 -22 0 -60 33 -60
53 0 6 4 29 9 49 5 21 6 36 1 33 -6 -4 -14 -23 -50 -119 -10 -27 -11 -27 -34
-13 -16 11 -27 12 -34 5 -16 -16 -81 -12 -103 8 -25 23 -25 83 1 133 27 55 72
68 105 31z m390 -100 c-9 -16 -29 -53 -46 -82 -26 -44 -30 -59 -25 -96 l6 -43
-96 -46 c-57 -28 -109 -47 -128 -46 -35 1 -246 68 -271 87 -12 9 -2 12 51 14
171 8 389 104 493 216 32 34 35 33 16 -4z"/>
<path d="M1243 1518 c-23 -26 -47 -68 -41 -74 9 -8 78 59 78 77 0 25 -12 24
-37 -3z"/>
<path d="M358 1401 c-109 -35 -183 -92 -213 -164 -15 -35 -15 -41 0 -63 10
-16 25 -24 44 -24 27 0 30 4 45 65 9 35 16 76 16 91 0 25 2 26 32 20 56 -11
63 -26 48 -93 -7 -32 -15 -64 -18 -71 -8 -22 78 25 121 67 48 45 67 80 67 125
0 25 -6 39 -22 50 -28 20 -49 19 -120 -3z"/>
<path d="M1657 1156 c-25 -24 -67 -96 -67 -116 0 -28 116 68 120 100 7 47 -13
53 -53 16z"/>
<path d="M2035 830 c-4 -6 -10 -8 -15 -5 -5 3 -14 -5 -20 -17 -11 -22 -10 -22
4 -4 18 23 21 14 5 -15 -5 -11 -14 -17 -19 -14 -6 3 -7 0 -5 -7 3 -8 -2 -22
-11 -33 -8 -11 -13 -14 -9 -7 3 6 4 12 1 12 -2 0 -44 -70 -92 -156 -64 -114
-84 -158 -76 -166 20 -20 106 83 197 235 47 78 85 148 85 154 0 17 -37 36 -45
23z"/>
<path d="M940 400 c0 -5 5 -10 10 -10 6 0 10 5 10 10 0 6 -4 10 -10 10 -5 0
-10 -4 -10 -10z"/>
<path d="M1388 663 c-9 -10 -21 -29 -28 -42 -10 -19 -10 -22 2 -16 26 16 58
49 58 62 0 18 -14 16 -32 -4z"/>
</g>
</svg>
